<svg width="300" height="21" viewBox="0 0 300 21" fill="none" xmlns="http://www.w3.org/2000/svg">
<path d="M9.36364 6.99998C9.23864 6.61741 9.07386 6.27461 8.86932 5.97158C8.66856 5.66476 8.42803 5.40339 8.14773 5.18748C7.87121 4.97158 7.55682 4.8068 7.20455 4.69317C6.85227 4.57953 6.46591 4.52271 6.04545 4.52271C5.35606 4.52271 4.72917 4.70074 4.16477 5.0568C3.60038 5.41286 3.15152 5.93748 2.81818 6.63067C2.48485 7.32385 2.31818 8.17423 2.31818 9.1818C2.31818 10.1894 2.48674 11.0398 2.82386 11.7329C3.16098 12.4261 3.61742 12.9507 4.19318 13.3068C4.76894 13.6629 5.41667 13.8409 6.13636 13.8409C6.80303 13.8409 7.39015 13.6988 7.89773 13.4148C8.40909 13.1269 8.80682 12.7216 9.09091 12.1988C9.37879 11.6723 9.52273 11.053 9.52273 10.3409L9.95455 10.4318H6.45455V9.1818H10.8864V10.4318C10.8864 11.3901 10.6818 12.2235 10.2727 12.9318C9.86742 13.6401 9.30682 14.1894 8.59091 14.5795C7.87879 14.9659 7.06061 15.1591 6.13636 15.1591C5.10606 15.1591 4.20076 14.9167 3.42045 14.4318C2.64394 13.947 2.03788 13.2576 1.60227 12.3636C1.17045 11.4697 0.954545 10.4091 0.954545 9.1818C0.954545 8.26135 1.07765 7.4337 1.32386 6.69885C1.57386 5.96021 1.92614 5.33142 2.38068 4.81248C2.83523 4.29355 3.37311 3.89582 3.99432 3.6193C4.61553 3.34279 5.29924 3.20453 6.04545 3.20453C6.65909 3.20453 7.23106 3.29733 7.76136 3.48294C8.29545 3.66476 8.77083 3.92423 9.1875 4.26135C9.60795 4.59468 9.95833 4.9943 10.2386 5.46021C10.5189 5.92233 10.7121 6.43559 10.8182 6.99998H9.36364ZM23.1179 9.1818C23.1179 10.4091 22.8963 11.4697 22.4531 12.3636C22.0099 13.2576 21.402 13.947 20.6293 14.4318C19.8565 14.9167 18.974 15.1591 17.9815 15.1591C16.9891 15.1591 16.1065 14.9167 15.3338 14.4318C14.5611 13.947 13.9531 13.2576 13.5099 12.3636C13.0668 11.4697 12.8452 10.4091 12.8452 9.1818C12.8452 7.95453 13.0668 6.89392 13.5099 5.99998C13.9531 5.10605 14.5611 4.41665 15.3338 3.9318C16.1065 3.44695 16.9891 3.20453 17.9815 3.20453C18.974 3.20453 19.8565 3.44695 20.6293 3.9318C21.402 4.41665 22.0099 5.10605 22.4531 5.99998C22.8963 6.89392 23.1179 7.95453 23.1179 9.1818ZM21.7543 9.1818C21.7543 8.17423 21.5857 7.32385 21.2486 6.63067C20.9152 5.93748 20.4626 5.41286 19.8906 5.0568C19.3224 4.70074 18.6861 4.52271 17.9815 4.52271C17.277 4.52271 16.6387 4.70074 16.0668 5.0568C15.4986 5.41286 15.0459 5.93748 14.7088 6.63067C14.3755 7.32385 14.2088 8.17423 14.2088 9.1818C14.2088 10.1894 14.3755 11.0398 14.7088 11.7329C15.0459 12.4261 15.4986 12.9507 16.0668 13.3068C16.6387 13.6629 17.277 13.8409 17.9815 13.8409C18.6861 13.8409 19.3224 13.6629 19.8906 13.3068C20.4626 12.9507 20.9152 12.4261 21.2486 11.7329C21.5857 11.0398 21.7543 10.1894 21.7543 9.1818ZM25.4872 3.36362H27.169L31.1236 13.0227H31.2599L35.2145 3.36362H36.8963V15H35.5781V6.15908H35.4645L31.8281 15H30.5554L26.919 6.15908H26.8054V15H25.4872V3.36362ZM39.7216 15V3.36362H46.7443V4.61362H41.1307V8.54544H46.3807V9.79544H41.1307V13.75H46.8352V15H39.7216ZM55.6477 6.27271C55.5795 5.69695 55.303 5.24998 54.8182 4.9318C54.3333 4.61362 53.7386 4.45453 53.0341 4.45453C52.5189 4.45453 52.0682 4.53786 51.6818 4.70453C51.2992 4.8712 51 5.10036 50.7841 5.39203C50.572 5.6837 50.4659 6.01514 50.4659 6.38635C50.4659 6.69695 50.5398 6.964 50.6875 7.18748C50.839 7.40718 51.0322 7.59089 51.267 7.73862C51.5019 7.88256 51.7481 8.00188 52.0057 8.09658C52.2633 8.18748 52.5 8.26135 52.7159 8.31817L53.8977 8.63635C54.2008 8.71589 54.5379 8.82574 54.9091 8.96589C55.2841 9.10605 55.642 9.29733 55.983 9.53976C56.3277 9.77839 56.6117 10.0852 56.8352 10.4602C57.0587 10.8352 57.1705 11.2954 57.1705 11.8409C57.1705 12.4697 57.0057 13.0379 56.6761 13.5454C56.3504 14.053 55.8731 14.4564 55.2443 14.7557C54.6193 15.0549 53.8598 15.2045 52.9659 15.2045C52.1326 15.2045 51.411 15.0701 50.8011 14.8011C50.1951 14.5322 49.7178 14.1572 49.3693 13.6761C49.0246 13.1951 48.8295 12.6363 48.7841 12H50.2386C50.2765 12.4394 50.4242 12.803 50.6818 13.0909C50.9432 13.375 51.2727 13.5871 51.6705 13.7273C52.072 13.8636 52.5038 13.9318 52.9659 13.9318C53.5038 13.9318 53.9867 13.8447 54.4148 13.6704C54.8428 13.4924 55.1818 13.2462 55.4318 12.9318C55.6818 12.6136 55.8068 12.2424 55.8068 11.8182C55.8068 11.4318 55.6989 11.1174 55.483 10.875C55.267 10.6326 54.983 10.4356 54.6307 10.2841C54.2784 10.1326 53.8977 9.99998 53.4886 9.88635L52.0568 9.47726C51.1477 9.21589 50.428 8.84279 49.8977 8.35794C49.3674 7.87309 49.1023 7.23862 49.1023 6.45453C49.1023 5.80301 49.2784 5.23483 49.6307 4.74998C49.9867 4.26135 50.464 3.88256 51.0625 3.61362C51.6648 3.34089 52.3371 3.20453 53.0795 3.20453C53.8295 3.20453 54.4962 3.339 55.0795 3.60794C55.6629 3.87309 56.125 4.23673 56.4659 4.69885C56.8106 5.16097 56.9924 5.68559 57.0114 6.27271H55.6477Z" fill="#959595"/>
<path d="M59.0895 15V3.36362H63.6804C64.563 3.36362 65.3149 3.53218 65.9361 3.8693C66.5573 4.20264 67.0308 4.66665 67.3565 5.26135C67.6861 5.85226 67.8509 6.53408 67.8509 7.3068C67.8509 8.07953 67.6842 8.76135 67.3509 9.35226C67.0175 9.94317 66.5346 10.4034 65.902 10.7329C65.2732 11.0625 64.5118 11.2273 63.6179 11.2273H60.6918V9.25567H63.2202C63.6937 9.25567 64.0838 9.17423 64.3906 9.01135C64.7012 8.84468 64.9323 8.61551 65.0838 8.32385C65.2391 8.02839 65.3168 7.68938 65.3168 7.3068C65.3168 6.92044 65.2391 6.58332 65.0838 6.29544C64.9323 6.00377 64.7012 5.77839 64.3906 5.6193C64.08 5.45642 63.6861 5.37498 63.2088 5.37498H61.5497V15H59.0895ZM70.1108 15H67.4744L71.4915 3.36362H74.6619L78.6733 15H76.0369L73.1222 6.02271H73.0312L70.1108 15ZM69.946 10.4261H76.1733V12.3466H69.946V10.4261ZM78.2045 3.36362H80.9602L83.6136 8.37498H83.7273L86.3807 3.36362H89.1364L84.892 10.8863V15H82.4489V10.8863L78.2045 3.36362Z" fill="white"/>
<path fill-rule="evenodd" clip-rule="evenodd" d="M99.2028 13.8617L99.1995 13.8662L99.1963 13.8707C99.0183 14.1227 98.6196 14.1968 98.3077 13.9765C98.0581 13.8002 97.9831 13.4074 98.1957 13.097C98.5128 12.6927 98.7431 12.2201 98.8944 11.7581C99.0519 11.2771 99.1251 10.7305 99.1223 10.1944C99.1194 9.65838 99.0404 9.11262 98.8778 8.63333C98.7216 8.17295 98.4862 7.7028 98.1648 7.30194C97.9489 6.99377 98.0198 6.60017 98.2675 6.42122C98.577 6.19769 98.9765 6.26749 99.1571 6.51761L99.1604 6.5221L99.1637 6.5265C99.5638 7.05405 99.8919 7.64018 100.088 8.21523C100.294 8.89171 100.426 9.54608 100.429 10.1875C100.433 10.8624 100.368 11.5013 100.121 12.1302C99.851 12.8151 99.5898 13.34 99.2028 13.8617ZM102.095 15.1145L102.103 15.1034L102.11 15.0919C102.997 13.6713 103.509 11.957 103.499 10.1711C103.489 8.3857 102.96 6.67737 102.059 5.26646C101.863 4.95669 101.951 4.59045 102.28 4.35261C102.502 4.19288 102.917 4.24944 103.163 4.57952C104.181 6.19416 104.795 8.146 104.806 10.1642C104.817 12.2512 104.224 14.1397 103.222 15.7661C102.991 16.085 102.636 16.1743 102.33 15.9936C101.999 15.7507 101.938 15.337 102.095 15.1145ZM107.286 2.45724L107.295 2.47449L107.305 2.49097C108.684 4.73919 109.45 7.33243 109.465 10.1394C109.48 12.945 108.742 15.5451 107.388 17.8072C107.181 18.1409 106.83 18.235 106.475 18.0697C106.152 17.859 106.065 17.5098 106.234 17.1571C107.385 15.1125 108.101 12.703 108.088 10.1467C108.074 7.60176 107.408 5.19618 106.157 3.15136C105.988 2.80221 106.071 2.45448 106.391 2.24137C106.776 2.05725 107.152 2.1922 107.286 2.45724ZM111.369 0.317663L111.375 0.329447L111.382 0.340883C113.053 3.22941 114.035 6.53184 114.054 10.1149C114.073 13.6943 113.128 17.0039 111.491 19.9079C111.283 20.2378 110.934 20.3302 110.581 20.1656C110.259 19.9556 110.171 19.608 110.338 19.2564C111.915 16.5648 112.764 13.4463 112.747 10.1219C112.729 6.78887 111.772 3.68251 110.243 1.0174C110.051 0.628355 110.186 0.247321 110.454 0.111831C110.846 -0.0870443 111.232 0.0479557 111.369 0.317663Z" fill="white"/>
</svg>
